<svg width="33" height="32" viewBox="0 0 33 32" fill="none" xmlns="http://www.w3.org/2000/svg">
<path d="M16.4897 8.24447C13.3381 8.24447 10.485 7.3839 8.41868 5.99175C6.35348 4.60035 5.07617 2.67811 5.07617 0.554779C11.3793 0.554705 16.4897 3.99699 16.4897 8.24447Z" fill="#9AD14B"/>
<path d="M16.4896 12.6183C16.4896 13.3465 16.1506 14.0201 15.5723 14.5745V14.5753C13.2327 14.8747 11.4638 16.2595 11.4638 17.9229C11.4638 16.241 9.65539 14.8437 7.27744 14.5649C6.70572 14.0134 6.37103 13.3414 6.37103 12.6183C6.37103 10.736 8.63595 9.21002 11.4298 9.21002C14.2247 9.21002 16.4896 10.736 16.4896 12.6183Z" fill="#564C89"/>
<path d="M26.6072 12.6183C26.6072 13.3465 26.2681 14.0215 25.6898 14.5753C23.3503 14.8747 21.5824 16.2595 21.5824 17.9229C21.5824 16.241 19.774 14.8437 17.3961 14.5649C16.8254 14.0134 16.4897 13.3414 16.4897 12.6183C16.4897 10.736 18.7546 9.21002 21.5473 9.21002C24.3423 9.21002 26.6072 10.736 26.6072 12.6183Z" fill="#564C89"/>
<path d="M21.5824 17.923C21.5824 19.7062 19.5501 21.1701 16.9604 21.3194C16.8167 21.3275 16.6707 21.332 16.5237 21.332C16.3525 21.332 16.1835 21.3261 16.0167 21.315C13.461 21.1434 11.4638 19.6899 11.4638 17.923C11.4638 16.2595 13.2327 14.8747 15.5723 14.5753C15.8806 14.5354 16.1988 14.5147 16.5237 14.5147C16.821 14.5147 17.1129 14.5317 17.3961 14.565C19.774 14.8437 21.5824 16.241 21.5824 17.923Z" fill="#564C89"/>
<path d="M26.6412 14.5147C29.435 14.5147 31.6999 16.0406 31.6999 17.923C31.6999 19.8053 29.435 21.332 26.6412 21.332C26.47 21.332 26.301 21.3261 26.1342 21.315C23.5785 21.1434 21.5824 19.6899 21.5824 17.923C21.5824 16.2595 23.3502 14.8747 25.6898 14.5753C25.9981 14.5354 26.3164 14.5147 26.6412 14.5147Z" fill="#564C89"/>
<path d="M11.4638 17.923C11.4638 19.7062 9.43042 21.1708 6.84069 21.3194C6.69694 21.3275 6.55209 21.332 6.40504 21.332C3.6112 21.332 1.34628 19.8053 1.34628 17.923C1.34628 16.0406 3.6112 14.5147 6.40504 14.5147C6.70242 14.5147 6.99432 14.5317 7.27743 14.565C9.65538 14.8437 11.4638 16.241 11.4638 17.923Z" fill="#564C89"/>
<path d="M11.4638 17.9229C11.4638 19.6899 13.461 21.1434 16.0167 21.315V21.3157C16.3196 21.7526 16.4896 22.2413 16.4896 22.7566C16.4896 23.473 16.1615 24.1377 15.6008 24.6855C14.8557 25.4167 13.698 25.9416 12.3538 26.1087C12.0553 26.1457 11.7447 26.1656 11.4298 26.1656C8.63595 26.1656 6.37103 24.6389 6.37103 22.7566C6.37103 22.2428 6.53893 21.7556 6.8407 21.3194C9.43043 21.1708 11.4638 19.7062 11.4638 17.9229Z" fill="#564C89"/>
<path d="M21.5824 17.9229C21.5824 19.6899 23.5785 21.1434 26.1342 21.315V21.3157C26.4371 21.7526 26.6072 22.2413 26.6072 22.7566C26.6072 24.6389 24.3423 26.1656 21.5473 26.1656C21.2598 26.1656 20.9778 26.1494 20.7035 26.1183V26.1176C19.3208 25.9616 18.128 25.4271 17.3686 24.6774C16.8134 24.1303 16.4897 23.4686 16.4897 22.7566C16.4897 22.2428 16.6575 21.7556 16.9604 21.3194C19.5501 21.17 21.5824 19.7062 21.5824 17.9229Z" fill="#564C89"/>
<path d="M20.7034 26.1183C21.2576 26.6647 21.5824 27.3256 21.5824 28.0376C21.5824 29.9207 19.3175 31.4459 16.5237 31.4459C13.7298 31.4459 11.4649 29.9207 11.4649 28.0376C11.4649 27.3212 11.7919 26.6565 12.3538 26.1087C13.698 25.9416 14.8557 25.4167 15.6008 24.6855C16.1615 24.1377 16.4896 23.473 16.4896 22.7566C16.4896 23.4686 16.8134 24.1303 17.3686 24.6774C18.128 25.4271 19.3208 25.9616 20.7034 26.1176V26.1183V26.1183Z" fill="#564C89"/>
<path d="M20.85 12.5295C20.85 13.8196 21.9732 14.9333 23.5971 15.4492C23.0953 15.6095 22.5457 15.7124 21.9659 15.7453C21.8299 15.753 21.6927 15.7572 21.5534 15.7572C18.9082 15.7572 16.7636 14.3117 16.7636 12.5295C16.7636 10.7472 18.9082 9.30243 21.5534 9.30243C21.835 9.30243 22.1113 9.31855 22.3794 9.35004C22.8075 9.39972 23.2158 9.48866 23.5971 9.60977C21.9732 10.1263 20.85 11.2394 20.85 12.5295Z" fill="#423D72"/>
<path d="M25.7881 17.9635C25.7881 19.2536 26.9112 20.3673 28.5352 20.8832C28.0334 21.0435 27.4837 21.1464 26.904 21.1793C26.7679 21.187 26.6308 21.1912 26.4915 21.1912C23.8462 21.1912 21.7017 19.7457 21.7017 17.9635C21.7017 16.1812 23.8462 14.7365 26.4915 14.7365C26.7731 14.7365 27.0494 14.7526 27.3175 14.7841C27.7456 14.8337 28.1539 14.9227 28.5352 15.0438C26.9112 15.5604 25.7881 16.6734 25.7881 17.9635Z" fill="#423D72"/>
<path d="M15.8023 27.9074C15.8023 29.1975 16.9254 30.3112 18.5494 30.8271C18.0476 30.9874 17.4979 31.0903 16.9182 31.1232C16.7821 31.1309 16.6449 31.1351 16.5057 31.1351C13.8604 31.1351 11.7159 29.6896 11.7159 27.9074C11.7159 26.1251 14.5368 24.5591 17.1821 24.5591C17.4637 24.5591 17.0636 24.6964 17.3317 24.7279C17.7597 24.7776 18.168 24.8666 18.5494 24.9877C16.9254 25.5042 15.8023 26.6173 15.8023 27.9074Z" fill="#423D72"/>
<path d="M20.7952 22.9909C20.7952 24.281 21.9183 25.3947 23.5423 25.9106C23.0405 26.0709 22.4908 26.1738 21.9111 26.2067C21.775 26.2144 21.6379 26.2186 21.4986 26.2186C18.8533 26.2186 16.7088 24.7731 16.7088 22.9909C16.7088 21.2086 19.706 20.308 22.3396 19.7165C22.6067 19.6566 22.0565 19.78 22.3246 19.8115C22.7526 19.8611 23.161 19.9501 23.5423 20.0712C21.9183 20.5877 20.7952 21.7008 20.7952 22.9909Z" fill="#423D72"/>
<path d="M10.6869 12.6183C10.6869 13.3414 12.2758 15.2096 12.8476 15.7612C12.5644 15.7279 11.6635 16.3526 11.3661 16.3526C10.5947 16.3526 9.21755 14.6307 8.56353 14.8392C8.1608 14.7113 7.72955 14.6174 7.27744 14.5649C6.70572 14.0134 6.37103 13.3414 6.37103 12.6183C6.37103 10.736 8.63595 9.21002 11.4298 9.21002C12.2023 9.21002 12.9343 9.32683 13.5883 9.53532C11.8731 10.0802 10.6869 11.2557 10.6869 12.6183Z" fill="#423D72"/>
<path d="M5.66214 17.923C5.66214 19.2855 6.84837 20.4618 8.56352 21.0067C8.0335 21.176 7.45301 21.2847 6.84069 21.3194C6.69694 21.3275 6.55209 21.332 6.40504 21.332C3.6112 21.332 1.34628 19.8053 1.34628 17.923C1.34628 16.0406 3.6112 14.5147 6.40504 14.5147C6.70242 14.5147 6.99432 14.5317 7.27743 14.565C7.72954 14.6174 8.16079 14.7113 8.56352 14.8392C6.84837 15.3849 5.66214 16.5604 5.66214 17.923Z" fill="#423D72"/>
<path d="M13.5883 25.8403C13.2009 25.9638 12.7872 26.0547 12.3538 26.1087C12.0553 26.1457 11.7447 26.1656 11.4298 26.1656C8.63595 26.1656 6.37103 24.6389 6.37103 22.7566C6.37103 22.2428 6.53893 21.7556 6.8407 21.3194C7.45301 21.2846 8.03351 21.1759 8.56353 21.0066C9.21755 21.2159 9.70872 20.1962 10.3785 19.9383C12.2989 19.199 11.9697 19.4947 11.1566 21.3194C10.8548 21.7556 10.6869 22.2428 10.6869 22.7566C10.6869 24.1191 11.8731 25.2947 13.5883 25.8403Z" fill="#423D72"/>
<path d="M16.4897 8.24448L5.07617 0.554718C11.3793 0.554718 16.4897 3.997 16.4897 8.24448Z" fill="#90BC42"/>
<path d="M15.8126 17.9599C15.8126 19.3225 16.9988 20.4987 18.714 21.0436C18.184 21.2129 17.6035 21.3216 16.9911 21.3564C16.8474 21.3645 16.7025 21.3689 16.5555 21.3689C13.7617 21.3689 11.4967 19.8422 11.4967 17.9599C11.4967 16.0776 13.7617 14.5516 16.5555 14.5516C16.8529 14.5516 17.1448 14.5686 17.4279 14.6019C17.88 14.6544 18.3112 14.7483 18.714 14.8762C16.9988 15.4218 15.8126 16.5973 15.8126 17.9599Z" fill="#423D72"/>
<path d="M18.8535 19.4612C18.7036 19.4612 18.5518 19.4337 18.4156 19.3759C18.031 19.2126 17.9156 18.8703 18.1578 18.6112C18.3522 18.4033 18.4549 18.1654 18.4549 17.9229C18.4549 17.3789 17.9716 16.9022 17.2237 16.7085C16.7994 16.5985 16.5877 16.2777 16.7508 15.9919C16.9137 15.7061 17.39 15.5633 17.8143 15.6733C19.2033 16.0332 20.1008 16.9162 20.1008 17.9229C20.1008 18.3748 19.9105 18.8172 19.5504 19.2023C19.3941 19.3696 19.1267 19.4612 18.8535 19.4612Z" fill="white"/>
<path d="M24.4917 13.7782C24.4155 13.7782 24.3381 13.771 24.261 13.756C23.8246 13.6703 23.574 13.3625 23.7012 13.0685C23.7514 12.9522 23.7769 12.8318 23.7769 12.7107C23.7769 12.1667 23.2936 11.6899 22.5457 11.4962C22.1214 11.3863 21.9096 11.0655 22.0728 10.7797C22.2358 10.4939 22.712 10.3512 23.1363 10.4611C24.5253 10.8209 25.4228 11.704 25.4228 12.7107C25.4228 12.9369 25.3752 13.1615 25.2812 13.3787C25.1768 13.6209 24.8482 13.7782 24.4917 13.7782Z" fill="white"/>
<path d="M14.1194 13.784C14.0422 13.784 13.9639 13.7766 13.8862 13.7612C13.4502 13.6746 13.201 13.3663 13.3296 13.0726C13.3811 12.955 13.4072 12.8332 13.4072 12.7107C13.4072 12.1667 12.9239 11.6899 12.176 11.4962C11.7518 11.3863 11.5401 11.0655 11.7032 10.7797C11.8663 10.4938 12.3425 10.3513 12.7667 10.4611C14.1557 10.821 15.0531 11.704 15.0531 12.7107C15.0531 12.9395 15.0044 13.1667 14.9084 13.3862C14.8027 13.6276 14.4748 13.784 14.1194 13.784Z" fill="white"/>
<path d="M29.1685 19.4612C29.0186 19.4612 28.8668 19.4337 28.7306 19.3759C28.346 19.2126 28.2306 18.8703 28.4729 18.6112C28.6672 18.4033 28.7699 18.1654 28.7699 17.9229C28.7699 17.3789 28.2867 16.9022 27.5387 16.7085C27.1145 16.5985 26.9027 16.2777 27.0659 15.9919C27.2288 15.7061 27.705 15.5633 28.1293 15.6733C29.5183 16.0332 30.4158 16.9162 30.4158 17.9229C30.4158 18.3748 30.2256 18.8172 29.8654 19.2023C29.7091 19.3696 29.4417 19.4612 29.1685 19.4612Z" fill="white"/>
<path d="M23.9561 24.3038C23.8062 24.3038 23.6544 24.2762 23.5182 24.2184C23.1336 24.0552 23.0182 23.7129 23.2605 23.4537C23.4548 23.2458 23.5575 23.0079 23.5575 22.7655C23.5575 22.4593 23.9259 22.211 24.3805 22.211C24.8352 22.211 25.2036 22.4593 25.2036 22.7655C25.2036 23.2174 25.0133 23.6598 24.6531 24.0448C24.4968 24.2121 24.2293 24.3038 23.9561 24.3038Z" fill="white"/>
<path d="M19.018 29.516C18.8681 29.516 18.7164 29.4884 18.5802 29.4306C18.1956 29.2674 18.0801 28.9251 18.3224 28.6659C18.5168 28.458 18.6195 28.2201 18.6195 27.9777C18.6195 27.6715 18.9879 27.4232 19.4425 27.4232C19.8971 27.4232 20.2655 27.6715 20.2655 27.9777C20.2655 28.4296 20.0752 28.872 19.7151 29.257C19.5587 29.4243 19.2913 29.516 19.018 29.516Z" fill="white"/>
<path d="M13.5312 24.3038C13.3813 24.3038 13.2295 24.2762 13.0932 24.2184C12.7087 24.0552 12.5933 23.7128 12.8356 23.4537C13.0299 23.2458 13.1328 23.0079 13.1328 22.7654C13.1328 22.4592 13.5012 22.2109 13.9558 22.2109C14.4103 22.2109 14.7788 22.4592 14.7788 22.7654C14.7788 23.2173 14.5884 23.6597 14.2283 24.0448C14.0719 24.2121 13.8045 24.3038 13.5312 24.3038Z" fill="white"/>
<path d="M9.0321 19.4613C8.8822 19.4613 8.73044 19.4337 8.59415 19.3759C8.20964 19.2126 8.0942 18.8702 8.33661 18.6111C8.53095 18.4033 8.63366 18.1653 8.63366 17.9229C8.63366 17.3789 8.15039 16.9021 7.40244 16.7084C6.9782 16.5985 6.76653 16.2777 6.92959 15.9918C7.09277 15.706 7.5689 15.5634 7.99314 15.6733C9.38215 16.0332 10.2796 16.9161 10.2796 17.9229C10.2796 18.3748 10.0893 18.8172 9.72914 19.2023C9.57276 19.3696 9.30545 19.4613 9.0321 19.4613Z" fill="white"/>
<path d="M32.5233 17.9232C32.5233 15.8369 30.1177 14.1233 27.0774 13.9723C27.3097 13.542 27.43 13.0854 27.43 12.6181C27.43 10.4332 24.7912 8.65576 21.5476 8.65576C19.8854 8.65576 18.3831 9.12353 17.3124 9.87305V3.19498C17.3124 2.88875 16.9441 2.64049 16.4894 2.64049C16.0349 2.64049 15.6664 2.88875 15.6664 3.19498V4.11817C13.5468 1.65808 9.5935 0 5.07595 0C4.62143 0 4.25294 0.248264 4.25294 0.554492C4.25294 2.75656 5.52575 4.82689 7.83698 6.38397C9.9531 7.80968 12.7078 8.64837 15.6664 8.77989V9.87328C14.5955 9.1236 13.0928 8.65569 11.43 8.65569C8.18637 8.65569 5.54759 10.4332 5.54759 12.618C5.54759 13.0866 5.66873 13.5444 5.90236 13.9756C2.89377 14.1482 0.523285 15.8522 0.523285 17.9231C0.523285 19.9475 2.78853 21.6211 5.70067 21.8566C5.59982 22.1491 5.54759 22.4497 5.54759 22.7566C5.54759 24.8401 7.94693 26.552 10.9815 26.7071C10.7575 27.1304 10.6415 27.5789 10.6415 28.0377C10.6415 30.2225 13.2802 32 16.5239 32C19.7668 32 22.4051 30.2225 22.4051 28.0377C22.4051 27.578 22.2884 27.1282 22.0631 26.7037C25.0661 26.5272 27.4301 24.8249 27.4301 22.7566C27.4301 22.4519 27.3787 22.1532 27.2791 21.8624C30.2235 21.6475 32.5233 19.9631 32.5233 17.9232ZM5.9333 1.1319C8.43898 1.26624 10.7677 1.98826 12.5646 3.1989C14.3615 4.40954 15.4331 5.97845 15.6324 7.66662C10.4744 7.38708 6.3481 4.60694 5.9333 1.1319ZM21.5476 9.76467C23.8836 9.76467 25.7839 11.0447 25.7839 12.618C25.7839 13.1392 25.5765 13.6417 25.1827 14.0836C23.6564 14.347 22.3681 15.0139 21.5822 15.9046C20.7829 14.9987 19.4633 14.3251 17.9027 14.0714C17.5159 13.6327 17.3123 13.1345 17.3123 12.6181C17.3124 11.0447 19.2124 9.76467 21.5476 9.76467ZM16.5232 20.7771C14.1875 20.7771 12.2873 19.4968 12.2873 17.9232C12.2873 16.3494 14.1875 15.0692 16.5232 15.0692C18.859 15.0692 20.7592 16.3494 20.7592 17.9232C20.7592 19.4968 18.859 20.7771 16.5232 20.7771ZM11.43 9.76467C13.766 9.76467 15.6664 11.0447 15.6664 12.618C15.6664 13.139 15.4587 13.6415 15.0643 14.0837C13.5382 14.3471 12.2502 15.014 11.4643 15.9046C10.6647 14.9985 9.34473 14.3248 7.78376 14.0711C7.39705 13.6325 7.1936 13.1344 7.1936 12.618C7.1936 11.0447 9.0941 9.76467 11.43 9.76467ZM2.1693 17.9232C2.1693 16.3494 4.06957 15.0692 6.40538 15.0692C8.74108 15.0692 10.6414 16.3494 10.6414 17.9232C10.6414 19.4968 8.74108 20.7771 6.40538 20.7771C4.06957 20.7771 2.1693 19.4968 2.1693 17.9232ZM7.1936 22.7566C7.1936 22.4348 7.27141 22.1228 7.42416 21.8253C9.14128 21.6224 10.604 20.9166 11.4643 19.9417C12.3122 20.9026 13.7454 21.6022 15.4308 21.8164C15.5869 22.1168 15.6664 22.4318 15.6664 22.7565C15.6664 23.3374 15.4093 23.8956 14.9219 24.3718C14.2889 24.9933 13.2985 25.4275 12.2047 25.5632C11.9495 25.5947 11.6889 25.6108 11.43 25.6108C9.0941 25.6109 7.1936 24.3304 7.1936 22.7566ZM16.5239 30.891C14.1879 30.891 12.2875 29.611 12.2875 28.0377C12.2875 27.5271 12.4864 27.0342 12.8647 26.5998C14.2408 26.3661 15.4707 25.7932 16.278 25.0005C16.3524 24.9278 16.4223 24.8534 16.489 24.7781C16.5522 24.8497 16.6183 24.9205 16.6885 24.9897C17.516 25.8063 18.7787 26.3877 20.194 26.6129C20.5645 27.0443 20.7591 27.5326 20.7591 28.0377C20.759 29.611 18.8591 30.891 16.5239 30.891ZM21.5476 25.6109C21.325 25.6109 21.1007 25.599 20.8803 25.5757C20.8666 25.5737 20.8528 25.5718 20.8389 25.5703C19.7133 25.4436 18.6962 25.0041 18.0474 24.364C17.5666 23.8903 17.3124 23.3345 17.3124 22.7566C17.3124 22.4347 17.3902 22.1227 17.5431 21.8252C19.2598 21.622 20.7221 20.9164 21.5822 19.9417C22.4301 20.9026 23.8631 21.602 25.5483 21.8164C25.7043 22.1168 25.7839 22.4318 25.7839 22.7566C25.7839 24.3304 23.8836 25.6109 21.5476 25.6109ZM26.6413 20.7771C24.3056 20.7771 22.4052 19.4968 22.4052 17.9232C22.4052 16.3494 24.3055 15.0692 26.6413 15.0692C28.9771 15.0692 30.8774 16.3494 30.8774 17.9232C30.8773 19.4968 28.977 20.7771 26.6413 20.7771Z" fill="#333333"/>
</svg>
