<svg width="135" height="129" viewBox="0 0 135 129" fill="none" xmlns="http://www.w3.org/2000/svg">
<path d="M9.68 115.08C9.37067 114.429 8.92267 113.928 8.336 113.576C7.74933 113.213 7.06667 113.032 6.288 113.032C5.50933 113.032 4.80533 113.213 4.176 113.576C3.55733 113.928 3.06667 114.44 2.704 115.112C2.352 115.773 2.176 116.541 2.176 117.416C2.176 118.291 2.352 119.059 2.704 119.72C3.06667 120.381 3.55733 120.893 4.176 121.256C4.80533 121.608 5.50933 121.784 6.288 121.784C7.376 121.784 8.272 121.459 8.976 120.808C9.68 120.157 10.0907 119.277 10.208 118.168H5.76V116.984H11.76V118.104C11.6747 119.021 11.3867 119.864 10.896 120.632C10.4053 121.389 9.76 121.992 8.96 122.44C8.16 122.877 7.26933 123.096 6.288 123.096C5.25333 123.096 4.30933 122.856 3.456 122.376C2.60267 121.885 1.92533 121.208 1.424 120.344C0.933333 119.48 0.688 118.504 0.688 117.416C0.688 116.328 0.933333 115.352 1.424 114.488C1.92533 113.613 2.60267 112.936 3.456 112.456C4.30933 111.965 5.25333 111.72 6.288 111.72C7.472 111.72 8.51733 112.013 9.424 112.6C10.3413 113.187 11.008 114.013 11.424 115.08H9.68ZM15.1411 115.656C15.3971 115.155 15.7598 114.765 16.2291 114.488C16.7091 114.211 17.2905 114.072 17.9731 114.072V115.576H17.5891C15.9571 115.576 15.1411 116.461 15.1411 118.232V123H13.6851V114.232H15.1411V115.656ZM19.1099 118.584C19.1099 117.688 19.2912 116.904 19.6539 116.232C20.0165 115.549 20.5125 115.021 21.1419 114.648C21.7819 114.275 22.4912 114.088 23.2699 114.088C24.0379 114.088 24.7045 114.253 25.2699 114.584C25.8352 114.915 26.2565 115.331 26.5339 115.832V114.232H28.0059V123H26.5339V121.368C26.2459 121.88 25.8139 122.307 25.2379 122.648C24.6725 122.979 24.0112 123.144 23.2539 123.144C22.4752 123.144 21.7712 122.952 21.1419 122.568C20.5125 122.184 20.0165 121.645 19.6539 120.952C19.2912 120.259 19.1099 119.469 19.1099 118.584ZM26.5339 118.6C26.5339 117.939 26.4005 117.363 26.1339 116.872C25.8672 116.381 25.5045 116.008 25.0459 115.752C24.5979 115.485 24.1019 115.352 23.5579 115.352C23.0139 115.352 22.5179 115.48 22.0699 115.736C21.6219 115.992 21.2645 116.365 20.9979 116.856C20.7312 117.347 20.5979 117.923 20.5979 118.584C20.5979 119.256 20.7312 119.843 20.9979 120.344C21.2645 120.835 21.6219 121.213 22.0699 121.48C22.5179 121.736 23.0139 121.864 23.5579 121.864C24.1019 121.864 24.5979 121.736 25.0459 121.48C25.5045 121.213 25.8672 120.835 26.1339 120.344C26.4005 119.843 26.5339 119.261 26.5339 118.6ZM31.9224 115.848C32.2104 115.347 32.637 114.931 33.2024 114.6C33.7784 114.259 34.445 114.088 35.2024 114.088C35.981 114.088 36.685 114.275 37.3144 114.648C37.9544 115.021 38.4557 115.549 38.8184 116.232C39.181 116.904 39.3624 117.688 39.3624 118.584C39.3624 119.469 39.181 120.259 38.8184 120.952C38.4557 121.645 37.9544 122.184 37.3144 122.568C36.685 122.952 35.981 123.144 35.2024 123.144C34.4557 123.144 33.7944 122.979 33.2184 122.648C32.653 122.307 32.221 121.885 31.9224 121.384V127.16H30.4664V114.232H31.9224V115.848ZM37.8744 118.584C37.8744 117.923 37.741 117.347 37.4744 116.856C37.2077 116.365 36.845 115.992 36.3864 115.736C35.9384 115.48 35.4424 115.352 34.8984 115.352C34.365 115.352 33.869 115.485 33.4104 115.752C32.9624 116.008 32.5997 116.387 32.3224 116.888C32.0557 117.379 31.9224 117.949 31.9224 118.6C31.9224 119.261 32.0557 119.843 32.3224 120.344C32.5997 120.835 32.9624 121.213 33.4104 121.48C33.869 121.736 34.365 121.864 34.8984 121.864C35.4424 121.864 35.9384 121.736 36.3864 121.48C36.845 121.213 37.2077 120.835 37.4744 120.344C37.741 119.843 37.8744 119.256 37.8744 118.584ZM49.2789 118.28C49.2789 118.557 49.2629 118.851 49.2309 119.16H42.2229C42.2762 120.024 42.5695 120.701 43.1029 121.192C43.6469 121.672 44.3029 121.912 45.0709 121.912C45.7002 121.912 46.2229 121.768 46.6389 121.48C47.0655 121.181 47.3642 120.787 47.5349 120.296H49.1029C48.8682 121.139 48.3989 121.827 47.6949 122.36C46.9909 122.883 46.1162 123.144 45.0709 123.144C44.2389 123.144 43.4922 122.957 42.8309 122.584C42.1802 122.211 41.6682 121.683 41.2949 121C40.9215 120.307 40.7349 119.507 40.7349 118.6C40.7349 117.693 40.9162 116.899 41.2789 116.216C41.6415 115.533 42.1482 115.011 42.7989 114.648C43.4602 114.275 44.2175 114.088 45.0709 114.088C45.9029 114.088 46.6389 114.269 47.2789 114.632C47.9189 114.995 48.4095 115.496 48.7509 116.136C49.1029 116.765 49.2789 117.48 49.2789 118.28ZM47.7749 117.976C47.7749 117.421 47.6522 116.947 47.4069 116.552C47.1615 116.147 46.8255 115.843 46.3989 115.64C45.9829 115.427 45.5189 115.32 45.0069 115.32C44.2709 115.32 43.6415 115.555 43.1189 116.024C42.6069 116.493 42.3135 117.144 42.2389 117.976H47.7749ZM54.3048 123.144C53.6328 123.144 53.0301 123.032 52.4968 122.808C51.9634 122.573 51.5421 122.253 51.2328 121.848C50.9234 121.432 50.7528 120.957 50.7208 120.424H52.2248C52.2674 120.861 52.4701 121.219 52.8328 121.496C53.2061 121.773 53.6914 121.912 54.2888 121.912C54.8434 121.912 55.2808 121.789 55.6008 121.544C55.9208 121.299 56.0808 120.989 56.0808 120.616C56.0808 120.232 55.9101 119.949 55.5688 119.768C55.2274 119.576 54.6994 119.389 53.9848 119.208C53.3341 119.037 52.8008 118.867 52.3848 118.696C51.9794 118.515 51.6274 118.253 51.3288 117.912C51.0408 117.56 50.8968 117.101 50.8968 116.536C50.8968 116.088 51.0301 115.677 51.2968 115.304C51.5634 114.931 51.9421 114.637 52.4328 114.424C52.9234 114.2 53.4834 114.088 54.1128 114.088C55.0834 114.088 55.8674 114.333 56.4648 114.824C57.0621 115.315 57.3821 115.987 57.4248 116.84H55.9688C55.9368 116.381 55.7501 116.013 55.4088 115.736C55.0781 115.459 54.6301 115.32 54.0648 115.32C53.5421 115.32 53.1261 115.432 52.8168 115.656C52.5074 115.88 52.3528 116.173 52.3528 116.536C52.3528 116.824 52.4434 117.064 52.6248 117.256C52.8168 117.437 53.0514 117.587 53.3288 117.704C53.6168 117.811 54.0114 117.933 54.5128 118.072C55.1421 118.243 55.6541 118.413 56.0488 118.584C56.4434 118.744 56.7794 118.989 57.0568 119.32C57.3448 119.651 57.4941 120.083 57.5048 120.616C57.5048 121.096 57.3714 121.528 57.1048 121.912C56.8381 122.296 56.4594 122.6 55.9688 122.824C55.4888 123.037 54.9341 123.144 54.3048 123.144ZM69.2235 111.848V113.032H64.3755V116.792H68.3115V117.976H64.3755V123H62.9195V111.848H69.2235ZM71.734 112.808C71.4567 112.808 71.222 112.712 71.03 112.52C70.838 112.328 70.742 112.093 70.742 111.816C70.742 111.539 70.838 111.304 71.03 111.112C71.222 110.92 71.4567 110.824 71.734 110.824C72.0007 110.824 72.2247 110.92 72.406 111.112C72.598 111.304 72.694 111.539 72.694 111.816C72.694 112.093 72.598 112.328 72.406 112.52C72.2247 112.712 72.0007 112.808 71.734 112.808ZM72.438 114.232V123H70.982V114.232H72.438ZM79.1915 114.072C80.2582 114.072 81.1222 114.397 81.7835 115.048C82.4448 115.688 82.7755 116.616 82.7755 117.832V123H81.3355V118.04C81.3355 117.165 81.1168 116.499 80.6795 116.04C80.2422 115.571 79.6448 115.336 78.8875 115.336C78.1195 115.336 77.5062 115.576 77.0475 116.056C76.5995 116.536 76.3755 117.235 76.3755 118.152V123H74.9195V114.232H76.3755V115.48C76.6635 115.032 77.0528 114.685 77.5435 114.44C78.0448 114.195 78.5942 114.072 79.1915 114.072ZM84.6099 118.584C84.6099 117.688 84.7912 116.904 85.1539 116.232C85.5165 115.549 86.0125 115.021 86.6419 114.648C87.2819 114.275 87.9912 114.088 88.7699 114.088C89.5379 114.088 90.2045 114.253 90.7699 114.584C91.3352 114.915 91.7565 115.331 92.0339 115.832V114.232H93.5059V123H92.0339V121.368C91.7459 121.88 91.3139 122.307 90.7379 122.648C90.1725 122.979 89.5112 123.144 88.7539 123.144C87.9752 123.144 87.2712 122.952 86.6419 122.568C86.0125 122.184 85.5165 121.645 85.1539 120.952C84.7912 120.259 84.6099 119.469 84.6099 118.584ZM92.0339 118.6C92.0339 117.939 91.9005 117.363 91.6339 116.872C91.3672 116.381 91.0045 116.008 90.5459 115.752C90.0979 115.485 89.6019 115.352 89.0579 115.352C88.5139 115.352 88.0179 115.48 87.5699 115.736C87.1219 115.992 86.7645 116.365 86.4979 116.856C86.2312 117.347 86.0979 117.923 86.0979 118.584C86.0979 119.256 86.2312 119.843 86.4979 120.344C86.7645 120.835 87.1219 121.213 87.5699 121.48C88.0179 121.736 88.5139 121.864 89.0579 121.864C89.6019 121.864 90.0979 121.736 90.5459 121.48C91.0045 121.213 91.3672 120.835 91.6339 120.344C91.9005 119.843 92.0339 119.261 92.0339 118.6ZM100.238 114.072C101.305 114.072 102.169 114.397 102.83 115.048C103.492 115.688 103.822 116.616 103.822 117.832V123H102.382V118.04C102.382 117.165 102.164 116.499 101.726 116.04C101.289 115.571 100.692 115.336 99.9344 115.336C99.1664 115.336 98.553 115.576 98.0944 116.056C97.6464 116.536 97.4224 117.235 97.4224 118.152V123H95.9664V114.232H97.4224V115.48C97.7104 115.032 98.0997 114.685 98.5904 114.44C99.0917 114.195 99.641 114.072 100.238 114.072ZM105.657 118.6C105.657 117.693 105.838 116.904 106.201 116.232C106.563 115.549 107.065 115.021 107.705 114.648C108.355 114.275 109.097 114.088 109.929 114.088C111.006 114.088 111.891 114.349 112.585 114.872C113.289 115.395 113.753 116.12 113.977 117.048H112.409C112.259 116.515 111.966 116.093 111.529 115.784C111.102 115.475 110.569 115.32 109.929 115.32C109.097 115.32 108.425 115.608 107.913 116.184C107.401 116.749 107.145 117.555 107.145 118.6C107.145 119.656 107.401 120.472 107.913 121.048C108.425 121.624 109.097 121.912 109.929 121.912C110.569 121.912 111.102 121.763 111.529 121.464C111.955 121.165 112.249 120.739 112.409 120.184H113.977C113.742 121.08 113.273 121.8 112.569 122.344C111.865 122.877 110.985 123.144 109.929 123.144C109.097 123.144 108.355 122.957 107.705 122.584C107.065 122.211 106.563 121.683 106.201 121C105.838 120.317 105.657 119.517 105.657 118.6ZM123.92 118.28C123.92 118.557 123.904 118.851 123.872 119.16H116.864C116.917 120.024 117.21 120.701 117.744 121.192C118.288 121.672 118.944 121.912 119.712 121.912C120.341 121.912 120.864 121.768 121.28 121.48C121.706 121.181 122.005 120.787 122.176 120.296H123.744C123.509 121.139 123.04 121.827 122.336 122.36C121.632 122.883 120.757 123.144 119.712 123.144C118.88 123.144 118.133 122.957 117.472 122.584C116.821 122.211 116.309 121.683 115.936 121C115.562 120.307 115.376 119.507 115.376 118.6C115.376 117.693 115.557 116.899 115.92 116.216C116.282 115.533 116.789 115.011 117.44 114.648C118.101 114.275 118.858 114.088 119.712 114.088C120.544 114.088 121.28 114.269 121.92 114.632C122.56 114.995 123.05 115.496 123.392 116.136C123.744 116.765 123.92 117.48 123.92 118.28ZM122.416 117.976C122.416 117.421 122.293 116.947 122.048 116.552C121.802 116.147 121.466 115.843 121.04 115.64C120.624 115.427 120.16 115.32 119.648 115.32C118.912 115.32 118.282 115.555 117.76 116.024C117.248 116.493 116.954 117.144 116.88 117.976H122.416Z" fill="#C2BAFF"/>
<path d="M60.0241 123.096C59.7468 123.096 59.5121 123 59.3201 122.808C59.1281 122.616 59.0321 122.381 59.0321 122.104C59.0321 121.827 59.1281 121.592 59.3201 121.4C59.5121 121.208 59.7468 121.112 60.0241 121.112C60.2908 121.112 60.5148 121.208 60.6961 121.4C60.8881 121.592 60.9841 121.827 60.9841 122.104C60.9841 122.381 60.8881 122.616 60.6961 122.808C60.5148 123 60.2908 123.096 60.0241 123.096ZM133.041 119.944C133.041 120.456 132.913 120.947 132.657 121.416C132.401 121.875 132.023 122.259 131.521 122.568C131.031 122.877 130.439 123.053 129.745 123.096V124.392H128.881V123.096C127.911 123.011 127.121 122.701 126.513 122.168C125.905 121.624 125.596 120.936 125.585 120.104H127.137C127.18 120.552 127.345 120.941 127.633 121.272C127.932 121.603 128.348 121.811 128.881 121.896V117.896C128.167 117.715 127.591 117.528 127.153 117.336C126.716 117.144 126.343 116.845 126.033 116.44C125.724 116.035 125.569 115.491 125.569 114.808C125.569 113.944 125.868 113.229 126.465 112.664C127.073 112.099 127.879 111.784 128.881 111.72V110.392H129.745V111.72C130.652 111.795 131.383 112.088 131.937 112.6C132.492 113.101 132.812 113.757 132.897 114.568H131.345C131.292 114.195 131.127 113.859 130.849 113.56C130.572 113.251 130.204 113.048 129.745 112.952V116.856C130.449 117.037 131.02 117.224 131.457 117.416C131.905 117.597 132.279 117.891 132.577 118.296C132.887 118.701 133.041 119.251 133.041 119.944ZM127.057 114.728C127.057 115.251 127.212 115.651 127.521 115.928C127.831 116.205 128.284 116.435 128.881 116.616V112.92C128.327 112.973 127.884 113.155 127.553 113.464C127.223 113.763 127.057 114.184 127.057 114.728ZM129.745 121.912C130.321 121.848 130.769 121.64 131.089 121.288C131.42 120.936 131.585 120.515 131.585 120.024C131.585 119.501 131.425 119.101 131.105 118.824C130.785 118.536 130.332 118.307 129.745 118.136V121.912Z" fill="#9994FF"/>
<path d="M67.9159 25.764C60.037 25.764 52.9042 23.0747 47.7385 18.7242C42.5755 14.3761 39.3822 8.36912 39.3822 1.7337C55.1401 1.73347 67.9159 12.4906 67.9159 25.764Z" fill="#9AD14B"/>
<path d="M67.9159 39.4322C67.9159 41.7079 67.0682 43.8127 65.6224 45.5455V45.5478C59.7736 46.4835 55.3513 50.8108 55.3513 56.0092C55.3513 50.7531 50.8302 46.3864 44.8854 45.5154C43.4561 43.7919 42.6194 41.6918 42.6194 39.4322C42.6194 33.55 48.2817 28.7813 55.2663 28.7813C62.2536 28.7813 67.9159 33.55 67.9159 39.4322Z" fill="#564C89"/>
<path d="M93.2097 39.4322C93.2097 41.7079 92.362 43.8173 90.9163 45.5478C85.0674 46.4835 80.6479 50.8108 80.6479 56.0092C80.6479 50.7531 76.1268 46.3864 70.1819 45.5154C68.7554 43.7919 67.9159 41.6918 67.9159 39.4322C67.9159 33.55 73.5782 28.7813 80.5601 28.7813C87.5474 28.7813 93.2097 33.55 93.2097 39.4322Z" fill="#564C89"/>
<path d="M80.6479 56.0092C80.6479 61.5818 75.5672 66.1564 69.0928 66.6231C68.7334 66.6485 68.3686 66.6624 68.001 66.6624C67.573 66.6624 67.1505 66.6439 66.7335 66.6092C60.3442 66.0732 55.3513 61.531 55.3513 56.0092C55.3513 50.8108 59.7736 46.4835 65.6225 45.5478C66.3934 45.423 67.1889 45.3583 68.001 45.3583C68.7444 45.3583 69.4741 45.4115 70.1819 45.5154C76.1268 46.3865 80.6479 50.7531 80.6479 56.0092Z" fill="#564C89"/>
<path d="M93.2948 45.3583C100.279 45.3583 105.942 50.127 105.942 56.0092C105.942 61.8914 100.279 66.6624 93.2948 66.6624C92.8668 66.6624 92.4443 66.6439 92.0273 66.6092C85.638 66.0732 80.6479 61.531 80.6479 56.0092C80.6479 50.8108 85.0674 46.4835 90.9163 45.5478C91.6871 45.423 92.4827 45.3583 93.2948 45.3583Z" fill="#564C89"/>
<path d="M55.3513 56.0092C55.3513 61.5818 50.2679 66.1587 43.7935 66.6231C43.4342 66.6485 43.072 66.6624 42.7044 66.6624C35.7198 66.6624 30.0575 61.8914 30.0575 56.0092C30.0575 50.127 35.7198 45.3583 42.7044 45.3583C43.4479 45.3583 44.1776 45.4115 44.8854 45.5154C50.8303 46.3865 55.3513 50.7531 55.3513 56.0092Z" fill="#564C89"/>
<path d="M55.3513 56.0092C55.3513 61.531 60.3442 66.0732 66.7335 66.6092V66.6115C67.4907 67.977 67.9159 69.5041 67.9159 71.1145C67.9159 73.3532 67.0956 75.4303 65.6938 77.1422C63.831 79.4272 60.9368 81.0676 57.5762 81.5897C56.83 81.7052 56.0536 81.7676 55.2663 81.7676C48.2817 81.7676 42.6194 76.9967 42.6194 71.1145C42.6194 69.5087 43.0391 67.9862 43.7935 66.6231C50.2678 66.1587 55.3513 61.5818 55.3513 56.0092Z" fill="#564C89"/>
<path d="M80.6479 56.0092C80.6479 61.531 85.638 66.0732 92.0273 66.6092V66.6115C92.7845 67.977 93.2097 69.5041 93.2097 71.1145C93.2097 76.9967 87.5474 81.7676 80.5601 81.7676C79.8413 81.7676 79.1363 81.7168 78.4504 81.6198V81.6175C74.9938 81.13 72.0118 79.4596 70.1134 77.1168C68.7252 75.4071 67.9159 73.3394 67.9159 71.1145C67.9159 69.5087 68.3357 67.9862 69.0928 66.6231C75.5672 66.1564 80.6479 61.5818 80.6479 56.0092Z" fill="#564C89"/>
<path d="M78.4504 81.6197C79.8358 83.3271 80.6478 85.3926 80.6478 87.6175C80.6478 93.502 74.9855 98.2684 68.0009 98.2684C61.0164 98.2684 55.354 93.502 55.354 87.6175C55.354 85.3787 56.1716 83.3017 57.5762 81.5897C60.9368 81.0676 63.831 79.4272 65.6938 77.1422C67.0956 75.4302 67.9159 73.3532 67.9159 71.1144C67.9159 73.3393 68.7252 75.4071 70.1133 77.1168C72.0117 79.4595 74.9938 81.1299 78.4504 81.6174V81.6197V81.6197Z" fill="#564C89"/>
<path d="M78.8169 39.1547C78.8169 43.1863 81.6248 46.6667 85.6847 48.2789C84.4301 48.7798 83.056 49.1014 81.6067 49.2042C81.2665 49.2282 80.9236 49.2414 80.5754 49.2414C73.9623 49.2414 68.6009 44.7241 68.6009 39.1547C68.6009 33.5851 73.9623 29.0701 80.5754 29.0701C81.2794 29.0701 81.9701 29.1205 82.6404 29.2189C83.7105 29.3742 84.7313 29.6521 85.6847 30.0306C81.6248 31.6448 78.8169 35.1231 78.8169 39.1547Z" fill="#423D72"/>
<path d="M91.1621 56.136C91.1621 60.1677 93.9699 63.648 98.0298 65.2602C96.7753 65.7611 95.4011 66.0827 93.9518 66.1855C93.6116 66.2095 93.2687 66.2227 92.9206 66.2227C86.3074 66.2227 80.9461 61.7054 80.9461 56.136C80.9461 50.5664 86.3074 46.0515 92.9206 46.0515C93.6245 46.0515 94.3153 46.1018 94.9855 46.2002C96.0557 46.3555 97.0765 46.6334 98.0298 47.0119C93.9699 48.6261 91.1621 52.1044 91.1621 56.136Z" fill="#423D72"/>
<path d="M66.1975 87.2106C66.1975 91.2423 69.0053 94.7226 73.0652 96.3348C71.8107 96.8357 70.4365 97.1573 68.9872 97.2601C68.647 97.2841 68.3041 97.2973 67.956 97.2973C61.3428 97.2973 55.9815 92.7801 55.9815 87.2106C55.9815 81.641 63.0338 76.7472 69.647 76.7472C70.3509 76.7472 69.3507 77.1764 70.0209 77.2749C71.0911 77.4301 72.1119 77.708 73.0652 78.0865C69.0053 79.7008 66.1975 83.179 66.1975 87.2106Z" fill="#423D72"/>
<path d="M78.6798 71.8466C78.6798 75.8782 81.4876 79.3586 85.5475 80.9708C84.293 81.4717 82.9188 81.7933 81.4695 81.8961C81.1293 81.9201 80.7864 81.9333 80.4383 81.9333C73.8251 81.9333 68.4638 77.416 68.4638 71.8466C68.4638 66.277 75.9567 63.4625 82.5408 61.6142C83.2085 61.4268 81.833 61.8124 82.5032 61.9108C83.5734 62.0661 84.5942 62.344 85.5475 62.7224C81.4876 64.3367 78.6798 67.815 78.6798 71.8466Z" fill="#423D72"/>
<path d="M53.409 39.4322C53.409 41.6918 57.3814 47.5301 58.8107 49.2536C58.1029 49.1497 55.8506 51.1019 55.1072 51.1019C53.1786 51.1019 49.7357 45.7211 48.1006 46.3726C47.0938 45.9729 46.0157 45.6795 44.8854 45.5154C43.4561 43.7919 42.6194 41.6918 42.6194 39.4322C42.6194 33.55 48.2817 28.7813 55.2663 28.7813C57.1976 28.7813 59.0274 29.1464 60.6625 29.7979C56.3746 31.5007 53.409 35.1742 53.409 39.4322Z" fill="#423D72"/>
<path d="M40.8472 56.0092C40.8472 60.2672 43.8127 63.943 48.1006 65.6458C46.7756 66.1748 45.3243 66.5145 43.7935 66.6231C43.4342 66.6485 43.072 66.6623 42.7044 66.6623C35.7198 66.6623 30.0575 61.8914 30.0575 56.0092C30.0575 50.1269 35.7198 45.3583 42.7044 45.3583C43.4479 45.3583 44.1776 45.4114 44.8854 45.5154C46.0157 45.6794 47.0938 45.9729 48.1006 46.3726C43.8127 48.0776 40.8472 51.7511 40.8472 56.0092Z" fill="#423D72"/>
<path d="M60.6624 80.751C59.694 81.1369 58.6598 81.421 57.5762 81.5897C56.83 81.7052 56.0536 81.7676 55.2663 81.7676C48.2817 81.7676 42.6194 76.9966 42.6194 71.1144C42.6194 69.5087 43.0391 67.9862 43.7935 66.623C45.3243 66.5145 46.7755 66.1748 48.1006 65.6457C49.7356 66.2996 50.9636 63.1131 52.6381 62.3072C57.439 59.9969 56.616 60.921 54.5832 66.623C53.8287 67.9862 53.409 69.5087 53.409 71.1144C53.409 75.3722 56.3746 79.046 60.6624 80.751Z" fill="#423D72"/>
<path d="M67.9159 25.764L39.3822 1.73349C55.1401 1.73349 67.9159 12.4906 67.9159 25.764Z" fill="#90BC42"/>
<path d="M66.2233 56.1247C66.2233 60.3827 69.1888 64.0586 73.4767 65.7613C72.1517 66.2904 70.7004 66.63 69.1696 66.7386C68.8103 66.764 68.4481 66.7779 68.0805 66.7779C61.0959 66.7779 55.4336 62.0069 55.4336 56.1247C55.4336 50.2425 61.0959 45.4738 68.0805 45.4738C68.824 45.4738 69.5537 45.527 70.2615 45.631C71.3918 45.795 72.4699 46.0884 73.4767 46.4881C69.1888 48.1932 66.2233 51.8667 66.2233 56.1247Z" fill="#423D72"/>
<path d="M73.8254 60.8164C73.4507 60.8164 73.0712 60.7302 72.7308 60.5495C71.7692 60.0394 71.4806 58.9697 72.0864 58.1599C72.5722 57.5102 72.829 56.7668 72.829 56.0092C72.829 54.3092 71.6208 52.8192 69.751 52.2139C68.6904 51.8704 68.1609 50.8679 68.5688 49.9747C68.976 49.0815 70.1668 48.6354 71.2274 48.9792C74.7 50.1036 76.9438 52.8631 76.9438 56.0092C76.9438 57.4213 76.4681 58.8038 75.5677 60.0071C75.177 60.5299 74.5085 60.8164 73.8254 60.8164Z" fill="white"/>
<path d="M87.9211 43.057C87.7307 43.057 87.537 43.0346 87.3444 42.9874C86.2534 42.7196 85.6268 41.7578 85.9447 40.839C86.0704 40.4756 86.134 40.0994 86.134 39.721C86.134 38.021 84.9259 36.5311 83.056 35.9257C81.9954 35.5822 81.4659 34.5797 81.8739 33.6865C82.2813 32.7936 83.4719 32.3474 84.5325 32.691C88.005 33.8154 90.2488 36.575 90.2488 39.721C90.2488 40.4277 90.1297 41.1299 89.8949 41.8084C89.6337 42.5653 88.8124 43.057 87.9211 43.057Z" fill="white"/>
<path d="M61.9902 43.075C61.7974 43.075 61.6015 43.0519 61.4073 43.0038C60.3173 42.733 59.6943 41.7696 60.0158 40.8517C60.1445 40.4843 60.2098 40.1038 60.2098 39.721C60.2098 38.021 59.0016 36.531 57.1317 35.9257C56.0712 35.5822 55.542 34.5797 55.9496 33.6865C56.3576 32.7931 57.5479 32.3479 58.6085 32.691C62.081 33.8157 64.3246 36.5749 64.3246 39.721C64.3246 40.4358 64.2028 41.1458 63.9627 41.832C63.6985 42.5861 62.8788 43.075 61.9902 43.075Z" fill="white"/>
<path d="M99.613 60.8164C99.2382 60.8164 98.8588 60.7302 98.5184 60.5495C97.5568 60.0394 97.2682 58.9697 97.874 58.1599C98.3598 57.5102 98.6166 56.7668 98.6166 56.0092C98.6166 54.3092 97.4084 52.8192 95.5385 52.2139C94.478 51.8704 93.9485 50.8679 94.3564 49.9747C94.7638 49.0815 95.9542 48.6354 97.015 48.9792C100.488 50.1036 102.731 52.8631 102.731 56.0092C102.731 57.4213 102.256 58.8038 101.355 60.0071C100.965 60.5299 100.296 60.8164 99.613 60.8164Z" fill="white"/>
<path d="M86.582 75.9494C86.2073 75.9494 85.8278 75.8632 85.4874 75.6825C84.5258 75.1724 84.2372 74.1027 84.843 73.2929C85.3288 72.6432 85.5856 71.8998 85.5856 71.1422C85.5856 70.1852 86.5066 69.4094 87.6431 69.4094C88.7797 69.4094 89.7007 70.1852 89.7007 71.1422C89.7007 72.5543 89.225 73.9368 88.3246 75.1401C87.9337 75.6629 87.2651 75.9494 86.582 75.9494Z" fill="white"/>
<path d="M74.2369 92.2376C73.8621 92.2376 73.4827 92.1514 73.1423 91.9707C72.1807 91.4606 71.8921 90.3909 72.4979 89.5811C72.9837 88.9314 73.2405 88.1879 73.2405 87.4304C73.2405 86.4734 74.1614 85.6976 75.298 85.6976C76.4346 85.6976 77.3555 86.4734 77.3555 87.4304C77.3555 88.8425 76.8798 90.225 75.9795 91.4283C75.5885 91.9511 74.92 92.2376 74.2369 92.2376Z" fill="white"/>
<path d="M60.5198 75.9494C60.1451 75.9494 59.7657 75.8632 59.4249 75.6826C58.4637 75.1724 58.1751 74.1025 58.7808 73.2927C59.2666 72.6432 59.5237 71.8995 59.5237 71.142C59.5237 70.185 60.4449 69.4092 61.5812 69.4092C62.7175 69.4092 63.6387 70.185 63.6387 71.142C63.6387 72.5541 63.1628 73.9366 62.2627 75.1401C61.8715 75.6629 61.2032 75.9494 60.5198 75.9494Z" fill="white"/>
<path d="M49.272 60.8164C48.8973 60.8164 48.5179 60.7302 48.1772 60.5496C47.2159 60.0394 46.9273 58.9695 47.5333 58.1597C48.0191 57.5102 48.2759 56.7665 48.2759 56.009C48.2759 54.309 47.0677 52.819 45.1979 52.2137C44.1373 51.8701 43.6081 50.8677 44.0157 49.9745C44.4237 49.0813 45.614 48.6356 46.6746 48.9789C50.1472 50.1036 52.3907 52.8629 52.3907 56.009C52.3907 57.4211 51.915 58.8036 51.0146 60.0071C50.6237 60.5299 49.9554 60.8164 49.272 60.8164Z" fill="white"/>
<path d="M108 56.0099C108 49.4904 101.986 44.1354 94.3852 43.6634C94.966 42.3188 95.2667 40.8919 95.2667 39.4315C95.2667 32.6039 88.6697 27.0493 80.5609 27.0493C76.4052 27.0493 72.6496 28.511 69.9729 30.8533V9.98431C69.9729 9.02735 69.0519 8.25153 67.9154 8.25153C66.7791 8.25153 65.8578 9.02735 65.8578 9.98431V12.8693C60.5588 5.18149 50.6755 0 39.3817 0C38.2454 0 37.3241 0.775826 37.3241 1.73279C37.3241 8.61426 40.5062 15.084 46.2842 19.9499C51.5745 24.4052 58.4612 27.0261 65.8578 27.4372V30.854C63.1806 28.5113 59.4238 27.049 55.2668 27.049C47.1577 27.049 40.5608 32.6036 40.5608 39.4313C40.5608 40.8956 40.8636 42.3262 41.4477 43.6738C33.9262 44.2131 28 49.538 28 56.0096C28 62.3359 33.6631 67.5659 40.9435 68.3018C40.6913 69.216 40.5608 70.1552 40.5608 71.1142C40.5608 77.6253 46.5591 82.975 54.1456 83.4598C53.5854 84.7824 53.2954 86.1841 53.2954 87.6177C53.2954 94.4454 59.8924 100 68.0015 100C76.1087 100 82.7046 94.4454 82.7046 87.6177C82.7046 86.1811 82.4127 84.7755 81.8495 83.4491C89.3569 82.8974 95.267 77.5777 95.267 71.1145C95.267 70.1621 95.1386 69.2287 94.8895 68.3201C102.25 67.6484 108 62.3847 108 56.0099ZM41.525 3.53719C47.7892 3.95699 53.6109 6.21331 58.1032 9.99656C62.5954 13.7798 65.2746 18.6827 65.7728 23.9582C52.8779 23.0846 42.562 14.3967 41.525 3.53719ZM80.5609 30.5146C86.4007 30.5146 91.1516 34.5146 91.1516 39.4313C91.1516 41.0601 90.6331 42.6302 89.6486 44.0114C85.8328 44.8343 82.6121 46.9185 80.6473 49.7018C78.649 46.8709 75.3502 44.7659 71.4485 43.973C70.4815 42.602 69.9726 41.0453 69.9726 39.4315C69.9729 34.5148 74.7227 30.5146 80.5609 30.5146ZM67.9999 64.9284C62.1606 64.9284 57.4099 60.9275 57.4099 56.0099C57.4099 51.092 62.1606 47.0911 67.9999 47.0911C73.8394 47.0911 78.5898 51.092 78.5898 56.0099C78.5898 60.9275 73.8394 64.9284 67.9999 64.9284ZM55.2668 30.5146C61.1069 30.5146 65.8578 34.5146 65.8578 39.4313C65.8578 41.0594 65.3385 42.6298 64.3526 44.0116C60.5374 44.8348 57.3172 46.9188 55.3524 49.7018C53.3536 46.8702 50.0536 44.765 46.1512 43.9723C45.1844 42.6016 44.6758 41.0451 44.6758 39.4313C44.6758 34.5148 49.427 30.5146 55.2668 30.5146ZM32.115 56.0099C32.115 51.092 36.8657 47.0911 42.7052 47.0911C48.5445 47.0911 53.2952 51.092 53.2952 56.0099C53.2952 60.9275 48.5445 64.9284 42.7052 64.9284C36.8657 64.9284 32.115 60.9275 32.115 56.0099ZM44.6758 71.1142C44.6758 70.1088 44.8703 69.1338 45.2522 68.2041C49.545 67.5699 53.2019 65.3644 55.3524 62.3177C57.4722 65.3207 61.0553 67.5068 65.2688 68.1761C65.659 69.1151 65.8578 70.0993 65.8578 71.114C65.8578 72.9295 65.2151 74.6738 63.9965 76.1619C62.4141 78.1041 59.9379 79.4609 57.2036 79.8849C56.5655 79.9836 55.914 80.0337 55.2668 80.0337C49.427 80.0339 44.6758 76.0326 44.6758 71.1142ZM68.0015 96.5344C62.1614 96.5344 57.4105 92.5345 57.4105 87.6177C57.4105 86.0222 57.9079 84.4819 58.8535 83.1243C62.2937 82.394 65.3684 80.6037 67.3867 78.1265C67.5727 77.8994 67.7475 77.6669 67.9143 77.4315C68.0723 77.6554 68.2374 77.8765 68.413 78.0927C70.4818 80.6448 73.6386 82.4614 77.1767 83.1652C78.1031 84.5135 78.5895 86.0395 78.5895 87.6177C78.5892 92.5345 73.8397 96.5344 68.0015 96.5344ZM80.5609 80.0339C80.0043 80.0339 79.4435 79.9969 78.8927 79.9239C78.8584 79.9177 78.8238 79.9119 78.789 79.9071C75.9751 79.5113 73.4323 78.1378 71.8104 76.1375C70.6083 74.6572 69.9729 72.9203 69.9729 71.1142C69.9729 70.1085 70.1674 69.1333 70.5495 68.2036C74.8413 67.5687 78.4971 65.3637 80.6473 62.3177C82.7671 65.3205 86.3497 67.5063 90.5626 68.1761C90.9525 69.1151 91.1516 70.0995 91.1516 71.1142C91.1516 76.0326 86.4007 80.0339 80.5609 80.0339ZM93.295 64.9284C87.4558 64.9284 82.7048 60.9275 82.7048 56.0099C82.7048 51.092 87.4555 47.0911 93.295 47.0911C99.1345 47.0911 103.885 51.092 103.885 56.0099C103.885 60.9275 99.1343 64.9284 93.295 64.9284Z" fill="#333333"/>
</svg>
